<svg width="1024" height="1024" viewBox="0 0 1024 1024" fill="none" xmlns="http://www.w3.org/2000/svg">
<rect width="1024" height="1024" fill="#FF0000"/>
<path d="M172.875 643V381.182H285.886C305.318 381.182 322.321 385.017 336.895 392.688C351.469 400.358 362.804 411.139 370.901 425.031C378.997 438.923 383.045 455.159 383.045 473.739C383.045 492.489 378.869 508.724 370.517 522.446C362.25 536.168 350.616 546.736 335.616 554.151C320.702 561.565 303.273 565.273 283.33 565.273H215.83V510.045H269.011C277.364 510.045 284.48 508.597 290.361 505.699C296.327 502.716 300.886 498.497 304.04 493.043C307.278 487.588 308.898 481.153 308.898 473.739C308.898 466.239 307.278 459.847 304.04 454.562C300.886 449.193 296.327 445.102 290.361 442.29C284.48 439.392 277.364 437.943 269.011 437.943H243.955V643H172.875ZM509.864 643H409.125V381.182H508.841C535.773 381.182 559.04 386.423 578.642 396.906C598.33 407.304 613.5 422.304 624.153 441.906C634.892 461.423 640.261 484.818 640.261 512.091C640.261 539.364 634.935 562.801 624.281 582.403C613.628 601.92 598.543 616.92 579.026 627.403C559.509 637.801 536.455 643 509.864 643ZM480.205 582.659H507.307C520.261 582.659 531.298 580.571 540.418 576.395C549.622 572.219 556.611 565.017 561.384 554.79C566.241 544.562 568.67 530.33 568.67 512.091C568.67 493.852 566.199 479.619 561.256 469.392C556.398 459.165 549.239 451.963 539.778 447.787C530.403 443.611 518.898 441.523 505.261 441.523H480.205V582.659ZM673.148 643V381.182H857.239V438.455H744.228V483.455H845.989V540.727H744.228V643H673.148Z" fill="white"/>
</svg>
